<?xml version="1.0"?>
 <svg fill="#787F8F" width="100" height="100" version="1.1" viewBox="0 0 100 100" xmlns="http://www.w3.org/2000/svg"> <g> <path d="m90.848 42.41c-4.1836 0-7.5898 3.4062-7.5898 7.5898s3.4023 7.5898 7.5898 7.5898c4.1836 0 7.5898-3.4062 7.5898-7.5898s-3.4023-7.5898-7.5898-7.5898z"></path> <path d="m90.848 6.3242c-4.1836 0-7.5898 3.4062-7.5898 7.5898 0 4.1836 3.4023 7.5898 7.5898 7.5898 4.1836 0 7.5898-3.4062 7.5898-7.5898 0-4.1836-3.4023-7.5898-7.5898-7.5898z"></path> <path d="m90.848 78.492c-4.1836 0-7.5898 3.4062-7.5898 7.5898 0 4.1836 3.4023 7.5898 7.5898 7.5898 4.1836 0 7.5898-3.4062 7.5898-7.5898 0-4.1836-3.4023-7.5898-7.5898-7.5898z"></path> <path d="m9.1523 42.41c-4.1875 0-7.5898 3.4062-7.5898 7.5898s3.4023 7.5898 7.5898 7.5898c4.1836 0 7.5898-3.4062 7.5898-7.5898-0.003907-4.1836-3.4062-7.5898-7.5898-7.5898z"></path> <path d="m9.1523 6.3242c-4.1875 0-7.5898 3.4062-7.5898 7.5938s3.4023 7.5898 7.5898 7.5898c4.1836 0 7.5898-3.4062 7.5898-7.5898-0.003907-4.1875-3.4062-7.5938-7.5898-7.5938z"></path> <path d="m9.1523 78.492c-4.1836 0-7.5898 3.4062-7.5898 7.5898 0 4.1836 3.4023 7.5898 7.5898 7.5898 4.1836 0 7.5898-3.4062 7.5898-7.5898-0.003907-4.1836-3.4062-7.5898-7.5898-7.5898z"></path> <path d="m73.586 53.438h-47.152c-0.92188 0-1.6719-0.75391-1.6719-1.6797 0-0.92578 0.74609-1.6797 1.6719-1.6797h47.156c0.92188 0 1.6719 0.75391 1.6719 1.6797-0.003907 0.92578-0.75 1.6797-1.6758 1.6797z"></path> <path d="m68.441 57.742c-0.48047 0-0.95703-0.20703-1.2852-0.60547-0.58984-0.71484-0.49219-1.7734 0.21875-2.3633l3.6016-3.0039-3.6211-3.0234c-0.71094-0.59375-0.80859-1.6523-0.21875-2.3672 0.58984-0.71484 1.6445-0.8125 2.3516-0.21875l5.168 4.3164c0.38281 0.32031 0.60156 0.79297 0.60156 1.293s-0.22266 0.97266-0.60156 1.293l-5.1484 4.2969c-0.31641 0.25781-0.69141 0.38281-1.0664 0.38281z"></path> <path d="m26.434 46.207c-0.62109 0-1.2148-0.34766-1.5039-0.94922-0.40234-0.83594-0.054688-1.8398 0.77734-2.2422l47.438-23.094c0.82812-0.40234 1.8281-0.054687 2.2305 0.78125s0.054688 1.8398-0.77734 2.2422l-47.438 23.094c-0.23438 0.11719-0.48047 0.16797-0.72656 0.16797z"></path> <path d="m71.727 28.832c-0.19531 0-0.39453-0.035156-0.58984-0.10938-0.86328-0.32812-1.2969-1.2969-0.97266-2.1641l1.5547-4.1406-4.168-1.5703c-0.86328-0.32422-1.3008-1.293-0.98047-2.1641 0.32422-0.86719 1.2891-1.3086 2.1484-0.98438l5.7344 2.1602c0.41406 0.15625 0.75 0.47266 0.93359 0.87891 0.18359 0.40625 0.19922 0.87109 0.042969 1.2891l-2.1445 5.7148c-0.25 0.67578-0.88672 1.0898-1.5586 1.0898z"></path> <path d="m24.934 88.668c-0.92188 0-1.6719-0.75-1.6719-1.6797 0-0.92578 0.74609-1.6797 1.6719-1.6797l48.656-0.011719c0.92188 0 1.6719 0.75 1.6719 1.6797 0 0.92578-0.74609 1.6797-1.6719 1.6797z"></path> <path d="m30.004 93.75c-0.42578 0-0.85156-0.16406-1.1797-0.48828l-5.0742-5.082c-0.31641-0.31641-0.49219-0.74219-0.49219-1.1914 0-0.44531 0.17578-0.875 0.49219-1.1914l5.0938-5.1016c0.65625-0.65234 1.7109-0.65234 2.3633 0.003907 0.65234 0.65625 0.64844 1.7227-0.003906 2.375l-3.9062 3.9102 3.8828 3.8906c0.65234 0.65625 0.65625 1.7188 0.003906 2.375-0.32031 0.33594-0.75 0.5-1.1797 0.5z"></path> <path d="m73.59 76.84c-0.15234 0-0.30859-0.019532-0.46094-0.066406l-47.156-13.594c-0.88672-0.25391-1.3984-1.1875-1.1445-2.0781 0.25391-0.89062 1.1836-1.4102 2.0664-1.1523l47.156 13.594c0.88672 0.25391 1.3984 1.1875 1.1445 2.0781-0.21094 0.73828-0.88281 1.2188-1.6055 1.2188z"></path> <path d="m29.906 68.523c-0.54297 0-1.0742-0.26563-1.3945-0.75391l-3.4727-5.2812c-0.27344-0.41797-0.34766-0.93359-0.20703-1.4102 0.14453-0.47656 0.48828-0.86719 0.94531-1.0625l6.1562-2.6328c0.84766-0.36328 1.8281 0.035157 2.1914 0.89063 0.35938 0.85547-0.035156 1.8398-0.88281 2.2031l-4.3086 1.8438 2.3633 3.5977c0.50781 0.77344 0.29688 1.8164-0.47266 2.3281-0.28125 0.1875-0.60156 0.27734-0.91797 0.27734z"></path> <path d="m76.152 40.82c-0.18359 0-0.37109-0.03125-0.55469-0.09375l-51.219-18.078c-0.87109-0.30859-1.3281-1.2656-1.0234-2.1406 0.30469-0.875 1.2617-1.3359 2.1289-1.0273l51.219 18.078c0.87109 0.30859 1.3281 1.2656 1.0234 2.1406-0.23828 0.6875-0.88672 1.1211-1.5742 1.1211z"></path> <path d="m70.391 42.848c-0.69141 0-1.3359-0.43359-1.5781-1.125-0.30469-0.875 0.15234-1.832 1.0234-2.1406l4.1797-1.4727-1.4766-4.207c-0.30859-0.875 0.14844-1.8359 1.0195-2.1445 0.875-0.3125 1.8242 0.14844 2.1328 1.0234l2.0352 5.7969c0.14844 0.42188 0.125 0.88281-0.070312 1.2852-0.19141 0.40234-0.53516 0.71094-0.95312 0.85938l-5.7617 2.0273c-0.18359 0.066406-0.37109 0.097656-0.55078 0.097656z"></path> <path d="m73.586 13.906h-49.738c-0.92188 0-1.6719-0.75391-1.6719-1.6797 0-0.92578 0.74609-1.6797 1.6719-1.6797h49.738c0.92187 0 1.6719 0.75391 1.6719 1.6797 0 0.92578-0.74609 1.6797-1.6719 1.6797z"></path> <path d="m29.016 18.223c-0.375 0-0.75391-0.12891-1.0664-0.38672l-5.168-4.3164c-0.38281-0.32031-0.60156-0.79297-0.60156-1.293s0.22266-0.97266 0.60156-1.293l5.1484-4.2969c0.71094-0.58984 1.7617-0.49609 2.3516 0.21875 0.58984 0.71484 0.49219 1.7734-0.21875 2.3672l-3.6016 3.0039 3.6211 3.0234c0.71094 0.59375 0.80859 1.6523 0.21875 2.3672-0.32812 0.39844-0.80469 0.60547-1.2852 0.60547z"></path> </g> </svg> 