<?xml version="1.0"?>
 <svg fill="#787F8F" width="100" height="100" version="1.1" viewBox="0 0 100 100" xmlns="http://www.w3.org/2000/svg"> <g> <path d="m86.469 46.996-5.4531-3.1406-0.015625-6.2422c0-0.21094-0.19141-0.65234-0.46875-0.8125l-14.984-8.707c-0.29297-0.16797-0.65234-0.16797-0.94531 0l-5.4375 3.1367-4.6523-2.6719-0.015625-6.2422c0-0.29297-0.28516-0.70703-0.46875-0.8125l-7.5039-4.3633c-0.45313-0.26172-1.0273-0.10938-1.2891 0.34375-0.26172 0.44922-0.10938 1.0273 0.33984 1.2891l6.0977 3.543c-0.44531 0.25781-3.957 2.2852-3.7539 2.168l-13.105-7.6172 3.7539-2.168 1.4492 0.84375c0.44922 0.26172 1.0273 0.10938 1.2891-0.34375 0.26172-0.44922 0.10937-1.0273-0.33984-1.2891l-1.9219-1.1172c-0.29297-0.16797-0.65234-0.17188-0.94531 0-0.91016 0.52734-16.25 9.3828-16.055 9.2695-0.29297 0.16797-0.47266 0.625-0.47266 0.8125 0 0.19531 0.027344 10.293 0.027344 10.098-6.332 3.6758-6.043 3.5312-13.945 8.0938-1.8828 1.0859-2.9258 3.2852-2.9336 6.1992-0.015625 5.6133 3.9453 12.477 8.832 15.297l40.699 23.5c2.1758 1.2539 4.7656 1.8398 6.9023 0.58984l31.23-18.152c1.8711-1.0977 2.8984-3.2969 2.8984-6.1914 0.019531-5.6211-3.9336-12.484-8.8125-15.312zm-31.766-11.02 13.105 7.6172-3.8008 2.1953-13.102-7.6172zm15.934 10.039-0.011719-1.8711 2.8477-1.6445 0.011719 1.875c-0.19141 0.10938-3.0391 1.75-2.8477 1.6406zm-20.672-6.2031 13.094 7.6094 0.046875 16.258-13.09-7.5977c0-0.19922-0.050781-16.629-0.050781-16.27zm29.195 15.703-14.168 8.1758-0.046876-16.27 3.793-2.1914 0.011719 2.4141c0 0.33594 0.17969 0.64844 0.47266 0.8125h0.003906s0 0.003907 0.003907 0.003907c0.30078 0.17187 0.66016 0.16406 0.94141 0 0.1875-0.10938 5.0352-2.8984 4.7305-2.7188 0.29297-0.16797 0.47656-0.48438 0.47266-0.82422l-0.019531-3.5078 3.7578-2.1719c0.035157 12.273 0.015625 4.1133 0.046875 16.277zm-9.4805-13.02-13.094-7.6094 0.90234-0.51953 1.9414-1.1211 13.094 7.6094c-0.1875 0.10938-3.0312 1.75-2.8438 1.6406zm-22.699-13.422-2.8477 1.6445-0.011718-1.875 2.8477-1.6445zm-10.426 3.0508 0.046874 16.266-13.094-7.6094c-0.019531-7.1523-0.027343-9.1133-0.046874-16.266zm1.9336 16.281-0.046875-16.281 3.7969-2.1914 0.011719 2.4219c0 0.33594 0.18359 0.64453 0.47266 0.8125 0.30078 0.17188 0.66016 0.16406 0.94141 0l4.7266-2.7305c0.29297-0.16797 0.47266-0.48438 0.47266-0.82031l-0.019531-3.5 3.7617-2.1719 0.011719 5.1406c0 0.003906-0.003907 0.007812-0.003907 0.011718l0.015625 5.8906-4.0938 2.3633c-0.29297 0.16797-0.47266 0.625-0.47266 0.8125l0.011719 4.6875zm26.582-18.414 13.105 7.6172c-0.44531 0.25781-3.957 2.2852-3.7539 2.168l-13.105-7.6172zm-7.8047 2.3164-2.7422 1.582-0.007813-3.1641zm-11.242-6.75-2.8438 1.6406-13.098-7.6094 2.8438-1.6406zm-17.824-4.8789 13.105 7.6172-3.8008 2.1953-13.105-7.6172zm26.992 63.742-40.699-23.496c-4.3633-2.5195-7.9023-8.6445-7.8867-13.656 0.015625-4.875 3.2578-6.1055 6.9961-3.9766l40.703 23.492c4.4336 2.5625 7.9688 8.9219 7.8789 13.746-0.054688 4.5586-3.0469 6.168-6.9922 3.8906zm38.203-22.117c0 2.1992-0.69922 3.8164-1.9648 4.5586l-27.672 16.086c0.19922-0.80078 0.30469-1.6172 0.3125-2.4336 0.050782-5.4922-3.6406-12.281-8.8242-15.371l-14.629-8.4453-26.07-15.047c-0.78906-0.45703-1.7305-0.83594-2.3828-1.0117l9.4414-5.4922c0 0.19531 0.015625 6.582 0.015625 6.1758 0 0.33594 0.17969 0.64453 0.46875 0.8125l14.98 8.7188c0.1875 0.10938 0.69922 0.14062 0.94531 0l10.078-5.8242 0.03125 11.59c0 0.33594 0.17969 0.64453 0.46875 0.8125 0.19531 0.11328 15.184 8.8242 14.984 8.707 0.29297 0.16797 0.65234 0.16797 0.94141 0l16.051-9.2695 0.003907-0.003906h0.003906c0.29297-0.16797 0.47266-0.48047 0.47266-0.82031l-0.03125-10.02 4.5039 2.5938c4.3555 2.5234 7.8867 8.6602 7.8672 13.672l0.003906 0.011719z"></path> <path d="m15.023 47.125c-2.7852-1.6016-5.2852-0.15234-5.2969 3.0273-0.007812 2.7969 1.8945 6.0898 4.3281 7.4922 2.7656 1.6055 5.2852 0.17188 5.293-3.0234 0.007813-2.7969-1.8906-6.0898-4.3242-7.4961zm-0.027344 8.8906c-1.8398-1.0625-3.3867-3.7422-3.3828-5.8555 0.007813-1.7656 0.99609-2.2461 2.4648-1.3984 1.8398 1.0586 3.3867 3.7422 3.3828 5.8555-0.003907 1.6953-0.92578 2.2812-2.4648 1.3984z"></path> <path d="m28.262 54.77c-2.7656-1.5898-5.2852-0.17188-5.293 3.0273-0.007812 2.7969 1.8945 6.0898 4.3281 7.4961 2.8281 1.625 5.2852 0.10938 5.293-3.0273 0.007812-2.7969-1.8945-6.0898-4.3281-7.4961zm-0.023438 8.8906c-1.8398-1.0625-3.3867-3.7461-3.3828-5.8594 0.007812-1.7578 0.98438-2.2461 2.4648-1.3984 1.8398 1.0625 3.3906 3.7461 3.3828 5.8594-0.007813 1.7344-0.96875 2.2617-2.4648 1.3984z"></path> <path d="m41.504 62.414c-2.7734-1.6016-5.2852-0.16406-5.293 3.0273-0.007813 2.8008 1.8945 6.0898 4.3281 7.4922 2.7891 1.6172 5.2852 0.14062 5.293-3.0234 0.003907-2.7969-1.8945-6.0898-4.3281-7.4961zm-0.027344 8.8867c-1.8398-1.0586-3.3867-3.7422-3.3828-5.8555 0.007812-1.7617 1-2.2422 2.4648-1.3984 1.8398 1.0625 3.3906 3.7461 3.3828 5.8594-0.003906 1.7305-0.96484 2.2617-2.4648 1.3945z"></path> <path d="m54.742 70.059c-2.7734-1.6016-5.2852-0.16406-5.293 3.0273-0.007813 2.7969 1.8945 6.0898 4.3281 7.4922 2.8164 1.6289 5.2852 0.12891 5.293-3.0234 0.007813-2.7969-1.8945-6.0898-4.3281-7.4961zm-0.023438 8.8867c-1.8398-1.0625-3.3867-3.7422-3.3828-5.8555 0.007812-1.7812 1.0117-2.2344 2.4648-1.3984 1.8398 1.0625 3.3906 3.7422 3.3828 5.8594-0.003906 1.7344-0.96094 2.2656-2.4648 1.3945z"></path> <path d="m43.336 15.281c-0.44922-0.26172-1.0273-0.10938-1.2891 0.34375-0.26172 0.44922-0.10938 1.0273 0.33984 1.2891l1.0547 0.61328c0.44141 0.25781 1.0234 0.11328 1.2891-0.34375 0.26172-0.44922 0.10938-1.0273-0.33984-1.2891z"></path> </g> </svg> 