<?xml version="1.0"?>
 <svg fill="#787F8F" width="100" height="100" version="1.1" viewBox="0 0 100 100" xmlns="http://www.w3.org/2000/svg"> <g> <path d="m9.4922 42.082c-4.3711 0-7.9297 3.5547-7.9297 7.918s3.5586 7.918 7.9297 7.918c4.3711 0 7.9297-3.5508 7.9297-7.918s-3.5586-7.918-7.9297-7.918z"></path> <path d="m90.508 42.082c-4.3711 0-7.9297 3.5508-7.9297 7.918s3.5586 7.918 7.9297 7.918c4.3711 0 7.9297-3.5547 7.9297-7.918s-3.5586-7.918-7.9297-7.918z"></path> <path d="m73.062 51.766-58.258-0.015625c-0.96484 0-1.7461-0.78516-1.7461-1.75s0.78125-1.75 1.7461-1.75l58.262 0.015625c0.96484 0 1.7461 0.78516 1.7461 1.75-0.003906 0.96484-0.78516 1.75-1.75 1.75z"></path> <path d="m65.621 59.199c-0.44922 0-0.89453-0.17188-1.2383-0.51562-0.67969-0.68359-0.67969-1.793 0.003907-2.4727l6.2031-6.1953-6.2305-6.2266c-0.68359-0.68359-0.68359-1.7891-0.003906-2.4727 0.67969-0.68359 1.7852-0.6875 2.4688-0.003906l7.4727 7.4648c0.32812 0.32812 0.51172 0.77344 0.51172 1.2383s-0.18359 0.91016-0.51172 1.2383l-7.4414 7.4336c-0.33984 0.34375-0.78906 0.51172-1.2344 0.51172z"></path> <path d="m90.508 6.25c-4.3711 0-7.9297 3.5508-7.9297 7.918 0 4.3672 3.5586 7.918 7.9297 7.918 4.3711 0 7.9297-3.5547 7.9297-7.918 0-4.3672-3.5586-7.918-7.9297-7.918z"></path> <path d="m90.508 77.918c-4.3711 0-7.9297 3.5508-7.9297 7.918 0 4.3633 3.5586 7.918 7.9297 7.918 4.3711-0.003906 7.9297-3.5547 7.9297-7.9219 0-4.3633-3.5586-7.9141-7.9297-7.9141z"></path> <path d="m12.965 46.082c-0.66406 0-1.3008-0.38281-1.5898-1.0273-0.39844-0.87891-0.007812-1.918 0.87109-2.3164l60.008-27.207c0.87891-0.39844 1.9141-0.007812 2.3086 0.875 0.39844 0.87891 0.007812 1.918-0.87109 2.3164l-60.008 27.203c-0.23438 0.10547-0.47656 0.15625-0.71875 0.15625z"></path> <path d="m68.594 28.438c-0.24219 0-0.49219-0.050781-0.72656-0.16016-0.875-0.40234-1.2617-1.4414-0.85938-2.3203l3.6484-7.9688-8.0156-3.6641c-0.87891-0.40234-1.2656-1.4375-0.86328-2.3164 0.40234-0.87891 1.4375-1.2656 2.3125-0.86719l9.6094 4.3906c0.42188 0.19141 0.75 0.54688 0.91016 0.98047 0.16016 0.4375 0.14453 0.91797-0.050781 1.3398l-4.3789 9.5664c-0.29297 0.64062-0.92578 1.0195-1.5859 1.0195z"></path> <path d="m72.969 84.727c-0.24219 0-0.48828-0.050781-0.72266-0.15625l-60.004-27.32c-0.87891-0.39844-1.2656-1.4375-0.86719-2.3164s1.4336-1.2695 2.3125-0.87109l60.008 27.32c0.87891 0.39844 1.2656 1.4375 0.86719 2.3164-0.29297 0.64844-0.92969 1.0273-1.5938 1.0273z"></path> <path d="m63.363 89.117c-0.66406 0-1.2969-0.37891-1.5898-1.0234-0.39844-0.87891-0.011719-1.918 0.86328-2.3164l8.0156-3.6641-3.6445-7.9688c-0.40234-0.87891-0.019531-1.918 0.85938-2.3203 0.875-0.40234 1.9141-0.015625 2.3125 0.85938l4.3789 9.5625c0.19531 0.42188 0.21094 0.90625 0.050781 1.3398-0.16016 0.4375-0.48828 0.78906-0.91016 0.98047l-9.6094 4.3906c-0.23828 0.10938-0.48438 0.16016-0.72656 0.16016z"></path> </g> </svg> 